<?xml version="1.0" standalone="no"?>
<!DOCTYPE svg PUBLIC "-//W3C//DTD SVG 20010904//EN"
 "http://www.w3.org/TR/2001/REC-SVG-20010904/DTD/svg10.dtd">
<svg version="1.0" xmlns="http://www.w3.org/2000/svg"
 width="540.000000pt" height="569.000000pt" viewBox="0 0 540.000000 569.000000"
 preserveAspectRatio="xMidYMid meet">
<metadata>
Created by potrace 1.16, written by Peter Selinger 2001-2019
</metadata>
<g transform="translate(0.000000,569.000000) scale(0.100000,-0.100000)"
fill="#000000" stroke="none">
<path d="M0 2845 l0 -2845 2700 0 2700 0 0 2845 0 2845 -2700 0 -2700 0 0
-2845z m5208 2490 c9 -3 12 -510 12 -2489 0 -1366 -3 -2491 -6 -2500 -6 -15
-236 -16 -2504 -16 -2268 0 -2498 1 -2504 16 -3 9 -6 1131 -6 2494 0 2041 2
2481 13 2492 11 11 449 13 2498 10 1366 -1 2490 -4 2497 -7z"/>
<path d="M2405 4520 c-60 -11 -123 -26 -138 -35 -16 -8 -41 -15 -55 -15 -15
-1 -45 -9 -67 -20 -22 -11 -45 -19 -52 -20 -14 0 -167 -73 -230 -110 -10 -6
-30 -15 -45 -21 -14 -6 -29 -17 -32 -25 -3 -8 -10 -14 -16 -14 -9 0 -65 -35
-80 -50 -3 -3 -23 -18 -45 -34 -48 -36 -255 -240 -255 -253 0 -5 -8 -16 -17
-24 -26 -24 -53 -58 -53 -68 0 -5 -7 -15 -16 -22 -9 -7 -20 -22 -25 -34 -13
-28 -33 -60 -46 -76 -18 -22 -79 -149 -103 -214 -12 -33 -27 -69 -33 -80 -6
-11 -14 -33 -18 -50 -4 -16 -14 -48 -22 -70 -8 -22 -17 -62 -20 -90 -3 -27
-11 -66 -17 -85 -7 -21 -11 -127 -12 -268 -1 -186 2 -244 15 -285 9 -29 20
-77 26 -107 13 -75 31 -137 53 -186 10 -22 18 -46 18 -52 0 -13 99 -221 122
-257 40 -63 96 -143 114 -165 65 -76 122 -140 163 -181 49 -48 226 -191 251
-203 8 -3 42 -22 75 -42 33 -19 76 -42 95 -52 19 -9 37 -20 40 -23 3 -4 19
-10 37 -13 17 -4 37 -14 44 -22 6 -8 23 -14 38 -14 14 0 35 -7 45 -15 11 -8
30 -15 43 -15 13 0 38 -7 54 -16 84 -43 397 -70 624 -55 78 6 153 15 169 20
15 6 39 11 54 11 26 0 123 29 189 57 17 7 34 13 38 13 6 0 60 23 150 65 28 13
66 35 86 48 21 14 46 28 58 32 12 3 21 10 21 15 0 4 10 10 23 14 12 3 33 16
47 29 14 13 33 27 42 33 39 22 186 158 260 242 47 53 127 162 151 205 12 23
25 43 29 45 9 4 58 107 58 120 0 5 7 15 15 22 8 7 17 27 21 46 3 19 10 34 14
34 4 0 10 15 14 33 3 17 12 46 20 62 25 55 38 99 50 165 6 36 15 71 19 78 15
22 26 304 17 437 -8 126 -30 258 -51 320 -6 17 -14 46 -19 65 -4 19 -15 49
-24 65 -9 17 -16 36 -16 43 0 7 -4 20 -9 30 -5 9 -18 37 -29 62 -11 25 -23 52
-26 60 -4 8 -18 33 -31 55 -14 22 -29 49 -34 60 -5 12 -16 27 -25 34 -9 7 -16
19 -16 26 0 7 -9 24 -20 37 -10 12 -47 58 -80 100 -60 75 -256 268 -273 268
-5 0 -27 15 -50 33 -23 17 -51 37 -62 44 -87 53 -160 92 -215 117 -36 15 -69
32 -75 37 -5 5 -15 9 -23 9 -8 0 -28 6 -45 14 -52 23 -156 53 -247 72 -133 27
-490 29 -635 4z"/>
</g>
</svg>
