<?xml version="1.0" standalone="no"?>
<!DOCTYPE svg PUBLIC "-//W3C//DTD SVG 20010904//EN"
 "http://www.w3.org/TR/2001/REC-SVG-20010904/DTD/svg10.dtd">
<svg version="1.0" xmlns="http://www.w3.org/2000/svg"
 width="388.000000pt" height="250.000000pt" viewBox="0 0 388.000000 250.000000"
 preserveAspectRatio="xMidYMid meet">
<metadata>
Created by potrace 1.16, written by Peter Selinger 2001-2019
</metadata>
<g transform="translate(0.000000,250.000000) scale(0.100000,-0.100000)"
fill="#000000" stroke="none">
<path d="M768 2419 c-21 -12 -24 -59 -6 -77 8 -8 61 -12 174 -12 l162 0 52
-162 c29 -90 63 -199 77 -243 14 -44 35 -111 48 -150 13 -38 38 -117 55 -175
18 -58 47 -150 65 -205 17 -55 41 -130 53 -166 36 -114 67 -172 118 -222 71
-68 121 -89 227 -95 48 -2 87 -7 87 -11 0 -4 -9 -24 -20 -46 -38 -75 -25 -167
35 -233 41 -45 43 -46 103 -47 53 0 65 4 99 31 57 46 84 101 84 173 0 35 -6
71 -15 89 -9 17 -16 33 -16 37 0 3 135 5 301 5 283 0 301 -1 294 -18 -55 -129
-41 -238 38 -294 48 -34 132 -32 180 5 49 37 67 66 82 130 12 51 6 100 -20
159 -6 16 0 18 59 18 53 0 70 4 86 20 25 25 25 41 0 68 l-21 22 -712 0 -713 0
-40 26 c-22 14 -54 47 -72 73 -32 47 -44 78 -132 361 -29 91 -69 219 -90 285
-22 66 -51 158 -65 205 -32 99 -100 315 -122 380 -26 82 -22 80 -232 80 -108
0 -193 -5 -203 -11z"/>
<path d="M2213 2158 c-12 -17 -26 -47 -112 -252 -65 -154 -86 -202 -126 -291
-46 -103 -155 -369 -152 -371 3 -3 207 125 939 590 113 72 274 174 357 226 83
52 151 98 151 103 0 4 -236 7 -524 7 -407 0 -526 -3 -533 -12z"/>
<path d="M3309 2052 c-8 -10 -30 -39 -51 -63 -80 -97 -156 -190 -223 -273
-106 -133 -218 -270 -224 -276 -3 -3 -24 -27 -47 -55 -22 -27 -70 -87 -107
-132 -37 -45 -67 -85 -67 -88 0 -14 56 1 281 75 363 119 322 97 338 182 8 40
17 98 22 128 13 87 28 168 48 265 37 169 51 248 47 252 -2 2 -10 -4 -17 -15z"/>
<path d="M3013 1216 c-83 -28 -155 -54 -159 -58 -4 -5 48 -8 115 -8 130 0 165
9 195 52 16 23 22 69 9 67 -5 -1 -76 -25 -160 -53z"/>
<path d="M1199 836 c-2 -3 -162 -7 -354 -10 -193 -3 -388 -6 -435 -7 -150 -4
200 -16 718 -24 l482 -8 0 26 0 27 -203 0 c-112 0 -206 -2 -208 -4z"/>
<path d="M983 730 c-138 -3 -254 -8 -258 -11 -3 -4 99 -9 227 -13 128 -3 331
-8 451 -11 l217 -5 0 25 0 25 -192 -2 c-106 -1 -306 -5 -445 -8z"/>
<path d="M803 641 c-100 -4 -184 -9 -188 -12 -3 -4 146 -9 332 -13 186 -3 418
-9 516 -12 l177 -6 0 26 0 26 -327 -2 c-181 -1 -410 -4 -510 -7z"/>
<path d="M195 391 c-60 -17 -84 -30 -110 -66 -57 -74 -29 -191 55 -232 39 -19
193 -24 209 -7 5 5 11 38 13 74 l3 65 -30 0 c-30 0 -30 -1 -27 -47 5 -61 -10
-88 -49 -88 -63 0 -120 50 -140 123 -8 32 -7 48 6 83 21 55 51 74 118 74 43 0
59 -5 80 -24 28 -26 37 -24 37 10 0 14 -8 24 -22 27 -50 12 -115 15 -143 8z"/>
<path d="M944 391 c-81 -20 -134 -84 -134 -163 0 -50 26 -97 73 -132 38 -28
149 -29 197 -1 58 35 75 68 75 145 0 62 -3 71 -30 100 -17 17 -50 37 -79 45
-54 16 -56 16 -102 6z m111 -54 c58 -58 60 -175 3 -222 -39 -33 -82 -32 -126
1 -58 45 -78 126 -48 198 18 43 39 55 95 56 36 0 49 -6 76 -33z"/>
<path d="M1365 391 c-91 -23 -135 -73 -135 -155 0 -62 23 -104 75 -136 31 -19
53 -23 117 -24 60 -1 81 3 88 14 20 32 11 40 -22 20 -18 -11 -44 -20 -58 -19
-35 0 -90 29 -112 59 -40 54 -35 150 9 194 22 22 35 26 82 26 43 0 62 -5 79
-20 27 -26 32 -25 32 4 0 15 -7 27 -17 30 -37 11 -109 14 -138 7z"/>
<path d="M499 383 c0 -5 0 -68 1 -141 1 -89 -3 -139 -11 -148 -10 -12 -3 -14
42 -14 45 0 50 2 35 13 -13 10 -17 24 -14 62 3 42 6 50 24 53 15 2 29 -7 45
-30 51 -75 80 -98 123 -98 40 1 40 1 17 14 -25 14 -111 112 -111 126 0 5 11
21 25 36 42 45 30 103 -26 123 -36 12 -149 15 -150 4z"/>
<path d="M1625 381 c-3 -5 -1 -12 5 -16 13 -8 13 -225 0 -260 l-10 -26 97 3
c86 3 98 5 101 21 3 16 1 17 -16 8 -27 -15 -85 -14 -100 1 -7 7 -12 35 -12 64
0 59 11 68 62 53 45 -12 48 -12 48 11 0 16 -5 19 -30 14 -16 -4 -41 -3 -55 0
-24 6 -26 10 -23 59 l3 52 43 -1 c24 0 47 -6 52 -13 5 -9 9 -7 13 8 2 11 2 22
-1 25 -9 10 -170 7 -177 -3z"/>
<path d="M1929 384 c0 -5 0 -69 1 -142 1 -89 -3 -139 -11 -148 -10 -12 -3 -14
42 -14 33 0 49 4 41 9 -8 4 -14 29 -15 56 -2 36 2 50 16 59 15 9 22 7 38 -14
90 -112 87 -110 137 -109 26 0 40 3 32 6 -20 7 -65 50 -102 96 l-30 37 26 31
c32 38 35 88 6 114 -15 13 -42 20 -100 23 -44 2 -80 1 -81 -4z"/>
<path d="M2226 381 c-3 -5 1 -14 8 -20 8 -7 34 -42 57 -78 40 -61 43 -70 41
-126 -2 -35 -8 -65 -15 -69 -7 -4 13 -8 43 -8 42 0 51 3 42 12 -7 7 -12 38
-12 70 0 47 6 67 32 110 17 29 43 65 56 81 l26 27 -32 0 c-22 0 -32 -5 -32
-15 0 -17 -58 -115 -69 -115 -7 0 -64 94 -74 123 -7 18 -61 25 -71 8z"/>
<path d="M2765 383 c-6 -5 -12 -70 -14 -148 -2 -91 -7 -143 -15 -147 -6 -4 16
-8 48 -8 51 0 57 2 42 13 -14 10 -17 25 -14 72 l3 60 80 0 80 0 3 -58 c2 -35
-2 -64 -9 -73 -10 -12 -3 -14 42 -13 30 0 48 3 41 6 -10 4 -13 40 -11 151 1
161 1 162 -59 147 -18 -4 -22 -9 -13 -14 8 -5 11 -26 9 -62 l-3 -54 -80 0 -80
0 -1 65 c-1 56 -4 65 -20 68 -10 1 -24 -1 -29 -5z"/>
<path d="M3175 384 c-13 -5 -2 -209 13 -246 22 -54 104 -80 177 -56 58 19 73
56 77 193 3 110 3 110 -21 110 l-23 0 1 -122 c2 -122 2 -123 -25 -148 -50 -46
-116 -23 -135 48 -6 22 -9 81 -8 131 3 90 3 91 -21 93 -14 1 -29 0 -35 -3z"/>
<path d="M3530 370 c0 -23 0 -23 36 -9 16 5 39 8 51 4 22 -5 23 -8 23 -133 0
-86 -4 -132 -12 -140 -9 -9 0 -12 42 -12 42 0 51 3 42 12 -8 8 -12 54 -12 140
0 125 1 128 23 133 12 4 36 1 52 -5 22 -8 30 -8 36 2 14 22 -14 28 -148 28
-126 0 -133 -1 -133 -20z"/>
</g>
</svg>
