<?xml version="1.0" standalone="no"?>
<!DOCTYPE svg PUBLIC "-//W3C//DTD SVG 20010904//EN"
 "http://www.w3.org/TR/2001/REC-SVG-20010904/DTD/svg10.dtd">
<svg version="1.0" xmlns="http://www.w3.org/2000/svg"
 width="608.000000pt" height="118.000000pt" viewBox="0 0 608.000000 118.000000"
 preserveAspectRatio="xMidYMid meet">
<metadata>
Created by potrace 1.16, written by Peter Selinger 2001-2019
</metadata>
<g transform="translate(0.000000,118.000000) scale(0.100000,-0.100000)"
fill="#000000" stroke="none">
<path d="M5341 1139 c-120 -69 -337 -310 -474 -526 l-71 -113 -85 0 c-77 0
-261 17 -269 25 -2 2 50 84 116 182 152 227 175 290 133 359 -73 120 -376 105
-582 -28 -90 -58 -171 -144 -210 -224 -30 -61 -34 -78 -34 -151 0 -88 12 -115
67 -156 33 -25 114 -33 162 -17 107 35 196 184 167 279 -7 25 -18 41 -27 41
-12 0 -14 -5 -9 -17 26 -60 13 -127 -36 -190 -45 -57 -94 -83 -156 -83 -45 0
-54 4 -77 31 -82 97 41 343 234 468 80 52 151 78 243 90 137 16 197 -11 197
-90 0 -59 -28 -120 -129 -284 -140 -225 -130 -215 -204 -215 -38 0 -77 -7
-102 -19 -55 -24 -130 -111 -97 -111 5 0 18 11 30 25 28 32 54 42 131 51 42 4
61 3 61 -5 0 -6 -18 -40 -40 -75 -91 -150 -110 -206 -67 -206 18 0 30 12 52
53 15 28 50 92 79 140 l51 88 188 -3 c120 -2 186 -7 183 -13 -62 -137 -71
-203 -35 -249 15 -20 29 -26 57 -26 45 0 142 53 142 77 0 15 -1 15 -18 0 -28
-26 -91 -49 -114 -41 -31 10 -20 83 28 178 38 76 41 80 94 100 30 12 53 26 50
31 -3 6 -9 9 -15 8 -5 -1 -23 -5 -38 -9 l-28 -7 41 69 c62 101 123 187 216
299 86 105 223 244 262 264 12 6 22 16 22 21 0 18 -35 10 -89 -21z"/>
<path d="M754 1080 c-28 -5 -91 -23 -140 -41 -245 -86 -444 -244 -528 -419
-27 -57 -31 -75 -31 -151 0 -78 3 -90 28 -126 37 -54 107 -90 197 -103 149
-21 306 21 483 128 37 22 67 38 67 36 0 -3 -24 -49 -53 -102 -56 -101 -87
-172 -87 -197 0 -43 38 1 128 148 56 89 132 208 171 264 78 113 61 103 209
117 63 6 63 8 -32 -111 -64 -78 -80 -109 -53 -101 6 3 47 47 89 98 42 52 80
96 85 97 4 1 18 -5 30 -15 l22 -17 -34 -69 c-41 -86 -51 -142 -31 -189 34 -83
133 -75 262 23 l51 38 0 -29 c0 -34 32 -82 58 -87 43 -9 87 11 147 66 63 58
138 162 138 191 0 9 21 27 47 41 58 31 72 57 19 35 -50 -21 -59 -19 -53 12 7
39 -11 82 -39 89 -64 16 -130 -33 -245 -182 -114 -148 -220 -222 -304 -212
-28 3 -30 7 -33 46 -4 51 17 91 102 197 80 100 72 137 -21 97 -34 -15 -53 -18
-65 -11 -17 9 -16 13 13 53 34 48 36 88 6 94 -27 5 -54 -24 -73 -80 -14 -44
-19 -49 -38 -42 -38 12 -509 17 -586 5 -86 -14 -130 -34 -130 -61 0 -24 18
-25 166 -11 222 21 274 23 274 10 0 -25 -156 -164 -234 -209 -178 -100 -333
-143 -438 -121 -112 24 -168 86 -168 185 0 198 270 455 565 538 103 29 254 31
302 5 60 -32 80 -89 47 -135 -39 -56 -170 -107 -229 -91 -42 12 -55 35 -55 97
0 46 -3 53 -17 50 -15 -3 -18 -14 -18 -67 0 -58 3 -65 33 -92 46 -41 116 -41
200 2 70 35 141 108 143 148 3 72 -16 103 -85 138 -57 29 -172 39 -262 23z
m1117 -511 l22 -32 -23 -44 c-13 -24 -49 -71 -80 -103 -119 -124 -189 -74 -95
68 44 65 119 142 139 142 8 0 25 -14 37 -31z"/>
<path d="M2854 765 c-12 -8 -31 -38 -44 -67 -66 -154 -278 -376 -390 -409 -69
-21 -104 21 -84 99 4 15 14 22 30 22 64 0 217 78 253 129 35 48 36 77 6 107
-23 23 -32 25 -67 20 -22 -4 -53 -13 -68 -21 -48 -25 -147 -123 -189 -187 -79
-122 -234 -203 -286 -151 -48 47 69 228 188 289 35 19 41 14 26 -19 -15 -34
-5 -57 25 -57 53 0 88 97 48 133 -24 22 -77 21 -128 -2 -64 -29 -169 -134
-204 -203 -35 -71 -38 -115 -10 -151 49 -62 150 -51 257 29 17 13 34 24 36 24
3 0 10 -13 15 -30 13 -36 65 -70 108 -70 46 0 160 62 231 125 46 41 158 172
198 233 1 1 16 -5 32 -14 l29 -17 -35 -71 c-30 -60 -36 -81 -36 -139 0 -60 3
-71 24 -88 49 -40 155 -14 240 56 28 25 31 25 31 7 0 -29 38 -72 63 -72 38 1
99 35 202 113 55 42 101 74 103 72 2 -2 -11 -36 -28 -76 -65 -147 -160 -283
-221 -314 -45 -24 -75 -18 -119 21 -44 40 -53 29 -24 -27 41 -81 160 -65 250
33 47 51 75 94 144 218 35 63 90 155 122 203 48 71 57 91 47 103 -22 26 -51
15 -103 -42 -93 -102 -310 -264 -353 -264 -48 0 -21 46 105 185 51 55 92 108
92 117 0 11 -10 20 -26 24 -34 9 -80 -25 -145 -107 -106 -134 -195 -209 -274
-230 -29 -8 -41 -7 -61 6 -48 31 -25 99 81 233 39 49 64 90 61 98 -9 25 -33
26 -75 5 -77 -40 -97 -22 -52 46 34 51 37 63 19 81 -15 15 -19 15 -44 -3z
m-244 -150 c0 -17 -34 -66 -61 -89 -62 -52 -169 -95 -169 -67 0 13 108 120
143 142 29 17 87 27 87 14z"/>
<path d="M5764 715 c-45 -52 -50 -55 -95 -55 -53 0 -80 -20 -62 -48 5 -10 20
-18 31 -20 21 -3 21 -5 -13 -73 -42 -82 -89 -137 -169 -196 -69 -51 -96 -56
-96 -15 0 35 41 101 131 210 38 46 69 86 69 90 0 14 -16 30 -37 36 -28 9 -70
-28 -177 -158 -93 -112 -132 -152 -190 -190 -49 -33 -66 -33 -66 0 0 40 52
129 136 232 41 51 72 97 69 102 -3 6 -22 10 -40 10 -32 0 -44 -11 -145 -126
-60 -70 -110 -131 -110 -135 0 -14 22 -10 42 8 18 16 18 15 3 -20 -8 -20 -15
-50 -15 -67 0 -33 30 -70 58 -70 34 1 98 38 154 89 l58 53 -6 -46 c-7 -50 4
-72 44 -87 33 -13 85 12 154 72 l58 50 0 -34 c0 -20 9 -46 22 -62 20 -26 24
-27 93 -23 94 6 187 54 274 142 88 89 73 106 -20 22 -82 -74 -175 -126 -242
-133 -79 -9 -94 34 -44 132 25 51 106 173 118 181 6 3 73 14 151 25 197 26
206 33 49 39 l-134 5 27 31 c31 38 33 60 7 74 -31 16 -37 13 -87 -45z"/>
</g>
</svg>
